<?xml version="1.0" encoding="utf-8"?>
<!-- Generator: Adobe Illustrator 23.0.1, SVG Export Plug-In . SVG Version: 6.00 Build 0)  -->
<svg version="1.1" id="Isolation_Mode" xmlns="http://www.w3.org/2000/svg" xmlns:xlink="http://www.w3.org/1999/xlink" x="0px"
	 y="0px" viewBox="0 0 388.444 197.341" enable-background="new 0 0 388.444 197.341" xml:space="preserve">
<g>
	<g>
		<path fill="#111111" d="M39.132,20.125v64.592H17.643V20.125H0V1.863h56.768v18.262H39.132z"/>
		<path fill="#111111" d="M80.102,1.863l14.41,53.536l17.517-53.536h17.144l16.273,53.536l15.648-53.536h22.486l-26.464,82.854
			h-21.981L120.099,36.77l-15.9,47.947H82.337L57.616,1.863H80.102z"/>
		<path fill="#111111" d="M213.722,1.863v82.854H192.23V1.863H213.722z"/>
		<path fill="#111111" d="M231.094,84.717V1.863h21.489l39.63,50.681V1.863h21.489v82.854h-21.489l-39.63-50.681v50.681H231.094z"/>
		<path fill="#111111" d="M336.525,59.875c4.591,4.345,11.55,8.443,19.001,8.443c4.351,0,6.959-1.364,8.323-2.854
			c1.244-1.244,2.115-3.107,2.115-5.216c0-1.616-0.625-3.479-2.362-4.97c-2.109-1.863-5.342-2.734-10.684-4.351l-5.589-1.737
			c-3.479-1.118-8.569-2.981-11.922-6.706c-4.224-4.597-4.723-10.438-4.723-14.662c0-10.186,3.978-16.393,7.578-19.998
			C342.486,3.599,349.438,0,359.504,0c8.197,0,17.763,2.608,25.587,6.706l-8.569,16.772c-6.46-5.096-11.303-5.589-14.164-5.589
			c-2.109,0-4.97,0.493-7.079,2.482c-1.244,1.244-2.109,2.608-2.109,4.471c0,1.49,0.246,2.608,1.118,3.726
			c0.619,0.745,2.109,2.235,7.205,3.726l6.58,1.989c5.216,1.616,10.684,3.479,15.035,8.202c4.218,4.471,5.336,9.068,5.336,14.783
			c0,7.578-1.863,14.903-7.824,20.864c-7.079,7.085-15.654,8.449-24.469,8.449c-5.216,0-10.186-0.499-16.273-2.734
			c-1.37-0.493-6.586-2.482-12.547-6.58L336.525,59.875z"/>
		<path fill="#111111" d="M25.707,170.636c4.603,4.345,11.556,8.443,19.013,8.443c4.345,0,6.953-1.364,8.317-2.854
			c1.244-1.244,2.115-3.107,2.115-5.216c0-1.616-0.625-3.479-2.362-4.97c-2.109-1.863-5.342-2.734-10.678-4.351l-5.595-1.737
			c-3.479-1.118-8.575-2.981-11.928-6.706c-4.218-4.597-4.717-10.438-4.717-14.662c0-10.186,3.972-16.393,7.578-19.998
			c4.224-4.224,11.177-7.824,21.242-7.824c8.196,0,17.763,2.608,25.593,6.706l-8.575,16.772c-6.46-5.096-11.303-5.589-14.164-5.589
			c-2.109,0-4.964,0.493-7.079,2.482c-1.238,1.244-2.115,2.608-2.115,4.471c0,1.49,0.252,2.608,1.118,3.726
			c0.625,0.745,2.115,2.235,7.211,3.726l6.58,1.989c5.222,1.616,10.684,3.479,15.029,8.202c4.23,4.471,5.348,9.068,5.348,14.783
			c0,7.578-1.863,14.903-7.83,20.864c-7.079,7.085-15.654,8.449-24.469,8.449c-5.222,0-10.186-0.499-16.279-2.734
			c-1.358-0.493-6.58-2.482-12.541-6.58L25.707,170.636z"/>
		<path fill="#111111" d="M122.455,130.885v64.592h-21.489v-64.592H83.323v-18.262h56.768v18.262H122.455z"/>
		<path fill="#111111" d="M224.292,185.046c-8.443,8.07-20.371,12.295-32.669,12.295c-12.298,0-24.22-4.224-32.669-12.295
			c-8.821-8.449-13.04-20.004-13.04-30.935c0-11.057,4.218-22.733,13.04-31.055c8.449-8.07,20.371-12.295,32.669-12.295
			c12.298,0,24.226,4.224,32.669,12.295c8.821,8.323,13.046,19.998,13.046,31.055C237.338,165.041,233.113,176.597,224.292,185.046z
			 M174.854,138.211c-4.471,4.351-6.586,10.438-6.586,16.273c0,7.331,3.479,12.421,6.586,15.407c3.978,3.846,9.567,6.58,16.769,6.58
			c7.331,0,12.796-2.608,16.648-6.46c3.846-3.852,6.706-9.561,6.706-15.9c0-6.46-2.86-12.175-6.706-15.9
			c-4.597-4.345-10.934-6.58-16.648-6.58C185.659,131.631,179.325,133.74,174.854,138.211z"/>
		<path fill="#111111" d="M284.503,112.624c6.213,0,14.164,0.992,20.251,7.325c4.717,4.849,7.079,12.054,7.079,18.634
			c0,7.085-2.482,13.292-6.58,17.27c-3.233,3.101-7.578,4.97-11.429,5.715l25.96,33.91h-26.705l-20.623-31.8v31.8h-21.489v-82.854
			H284.503z M272.455,149.766h4.098c3.233,0,7.83-0.871,10.438-3.353c1.616-1.616,2.734-4.351,2.734-6.959
			c0-2.482-0.998-5.216-2.86-6.959c-1.989-1.983-5.589-3.227-10.312-3.227h-4.098V149.766z"/>
		<path fill="#111111" d="M375.909,130.885h-25.593v13.785h24.223v18.262h-24.223v14.284h25.593v18.262h-47.082v-82.854h47.082
			V130.885z"/>
	</g>
</g>
</svg>
