<?xml version="1.0" encoding="utf-8"?>
<!-- Generator: Adobe Illustrator 23.0.1, SVG Export Plug-In . SVG Version: 6.00 Build 0)  -->
<svg version="1.1" id="Layer_1" xmlns="http://www.w3.org/2000/svg" xmlns:xlink="http://www.w3.org/1999/xlink" x="0px" y="0px"
	 viewBox="0 0 490.414 489.542" enable-background="new 0 0 490.414 489.542" xml:space="preserve">
<animateTransform 
	attributeName="transform"
	type="rotate"
	from="0"
	to="360"
	dur="6s"
	repeatCount="indefinite"
/>
<g id="textLogo">
	<path d="M67.771,82.257l11.185,10.006l-3.333,3.723L64.442,85.98l-2.733,3.051l-3.164-2.825l8.794-9.833l3.164,2.829L67.771,82.257
		z"/>
	<path d="M71.792,71.728l10.907,6.83l-5.478-11.873l2.914-2.709l11.225,6.536l-5.792-11.58l3.824-3.55l8.585,18.273l-3.739,3.473
		l-10.131-5.784l4.87,10.67l-3.719,3.453L67.964,75.277L71.792,71.728z"/>
	<path d="M95.969,50.677l11.914,15.101l-3.916,3.087L92.053,53.764L95.969,50.677z"/>
	<path d="M110.588,63.509L99.765,47.566l4.134-2.805l14.244,4.576l-6.621-9.752l4.134-2.805l10.823,15.939l-4.134,2.805
		L108.1,50.951l6.621,9.748L110.588,63.509z"/>
	<path d="M127.714,45.401c1.425,0.358,3.3,0.402,4.81-0.443c0.881-0.495,1.252-1.067,1.36-1.525c0.109-0.39,0.076-0.865-0.165-1.296
		c-0.181-0.326-0.519-0.632-1.038-0.737c-0.64-0.137-1.393,0.052-2.656,0.33l-1.332,0.282c-0.829,0.169-2.073,0.37-3.176-0.008
		c-1.377-0.451-2.137-1.578-2.616-2.431c-1.155-2.061-1.055-3.771-0.733-4.91c0.374-1.332,1.377-2.85,3.413-3.993
		c1.658-0.93,3.892-1.485,5.941-1.546l0.169,4.371c-1.888-0.298-2.926,0.149-3.502,0.475c-0.431,0.237-0.95,0.66-1.155,1.304
		c-0.109,0.394-0.133,0.769,0.08,1.143c0.169,0.306,0.346,0.503,0.648,0.628c0.209,0.08,0.684,0.217,1.884-0.06l1.558-0.342
		c1.24-0.266,2.556-0.507,3.973-0.048c1.364,0.427,2.109,1.232,2.761,2.391c0.857,1.533,1.312,3.228,0.781,5.112
		c-0.632,2.238-2.214,3.486-4.001,4.488c-1.055,0.592-2.117,1.055-3.602,1.292c-0.334,0.052-1.614,0.241-3.288,0.089L127.714,45.401
		z"/>
	<path d="M156.234,31.088c1.368,0.551,3.224,0.849,4.838,0.213c0.942-0.366,1.393-0.885,1.562-1.324
		c0.161-0.374,0.193-0.853,0.012-1.312c-0.137-0.35-0.431-0.7-0.934-0.873c-0.616-0.225-1.389-0.141-2.685-0.036l-1.36,0.101
		c-0.845,0.052-2.109,0.08-3.151-0.439c-1.308-0.64-1.912-1.859-2.27-2.777c-0.865-2.206-0.535-3.888-0.06-4.979
		c0.555-1.272,1.759-2.644,3.936-3.502c1.779-0.696,4.073-0.946,6.118-0.72l-0.431,4.363c-1.835-0.555-2.926-0.25-3.546-0.008
		c-0.459,0.177-1.034,0.531-1.324,1.139c-0.161,0.374-0.233,0.745-0.076,1.151c0.129,0.322,0.278,0.543,0.559,0.712
		c0.197,0.109,0.648,0.302,1.88,0.193l1.594-0.129c1.268-0.093,2.612-0.157,3.956,0.499c1.296,0.608,1.928,1.509,2.415,2.749
		c0.644,1.638,0.861,3.385,0.076,5.184c-0.93,2.137-2.673,3.164-4.584,3.912c-1.131,0.447-2.25,0.761-3.755,0.793
		c-0.338,0.008-1.638,0.02-3.28-0.358L156.234,31.088z"/>
	<path d="M174.652,14.719l4.516,14.325l-4.765,1.501l-4.516-14.325l-3.908,1.232l-1.276-4.049l12.586-3.965l1.276,4.049
		L174.652,14.719z"/>
	<path d="M200.854,20.954c-1.485,2.27-3.952,3.852-6.73,4.5c-2.777,0.644-5.695,0.318-8.026-1.059
		c-2.435-1.445-3.997-3.828-4.572-6.299c-0.584-2.495-0.246-5.353,1.308-7.696c1.481-2.27,3.952-3.852,6.73-4.5
		c2.777-0.648,5.691-0.322,8.026,1.059c2.427,1.413,3.997,3.828,4.58,6.323C202.746,15.753,202.4,18.583,200.854,20.954z
		 M187.222,12.984c-0.781,1.216-0.938,2.701-0.628,4.021c0.386,1.654,1.437,2.62,2.298,3.131c1.099,0.66,2.503,0.982,4.134,0.604
		c1.654-0.386,2.749-1.264,3.417-2.334c0.668-1.075,1.01-2.516,0.676-3.944c-0.338-1.457-1.284-2.6-2.351-3.236
		c-1.268-0.741-2.813-0.914-4.105-0.612C189.319,10.928,187.999,11.737,187.222,12.984z"/>
	<path d="M211.842,2.222c1.429-0.201,3.288-0.229,4.89,1.03c1.244,0.962,2.016,2.54,2.234,4.053
		c0.225,1.626-0.141,3.135-0.954,4.182c-0.644,0.817-1.582,1.389-2.443,1.682l7.068,6.955l-6.142,0.865l-5.768-6.641l1.03,7.309
		l-4.939,0.696l-2.685-19.046L211.842,2.222z M210.276,11.149l0.942-0.129c0.741-0.105,1.771-0.455,2.29-1.111
		c0.318-0.423,0.487-1.087,0.402-1.686c-0.08-0.572-0.398-1.167-0.881-1.509c-0.523-0.39-1.393-0.559-2.475-0.407l-0.942,0.133
		L210.276,11.149z"/>
	<path d="M234.265,4.371l-5.933,0.415l0.221,3.2l5.619-0.394l0.294,4.234l-5.615,0.394l0.229,3.312l5.937-0.415l0.294,4.234
		l-10.915,0.761l-1.344-19.211l10.92-0.765L234.265,4.371z"/>
	<path d="M261.235,4.749l-0.853,14.977l-4.983-0.282l0.853-14.981l-4.093-0.229L252.401,0l13.165,0.745l-0.241,4.234L261.235,4.749z
		"/>
	<path d="M272.07,1.256l1.473,12.799l5.868-11.7l3.936,0.588l1.9,12.868l5.442-11.765l5.168,0.773l-8.935,18.132l-5.055-0.757
		l-1.803-11.539l-5.305,10.473l-5.023-0.753l-2.834-19.895L272.07,1.256z"/>
	<path d="M303.609,7.007l-4.363,18.708l-4.854-1.131l4.363-18.708L303.609,7.007z"/>
	<path d="M302.603,26.383l5.699-18.374l4.765,1.481l5.297,13.966l3.494-11.242l4.765,1.481l-5.707,18.374l-4.765-1.481
		l-5.297-13.966l-3.486,11.237L302.603,26.383z"/>
	<path d="M327.38,28.412c0.612,1.34,1.755,2.829,3.365,3.478c0.934,0.378,1.618,0.31,2.045,0.109
		c0.378-0.161,0.724-0.487,0.91-0.942c0.137-0.346,0.169-0.805-0.081-1.276c-0.29-0.588-0.91-1.055-1.924-1.868l-1.055-0.865
		c-0.652-0.543-1.586-1.389-1.988-2.483c-0.507-1.36-0.105-2.66,0.258-3.57c0.894-2.198,2.286-3.192,3.381-3.655
		c1.28-0.543,3.091-0.716,5.265,0.161c1.763,0.712,3.598,2.109,4.935,3.675l-3.308,2.87c-0.95-1.658-1.956-2.19-2.568-2.439
		c-0.459-0.181-1.119-0.326-1.747-0.08c-0.378,0.161-0.684,0.378-0.845,0.781c-0.129,0.322-0.177,0.584-0.081,0.902
		c0.064,0.213,0.258,0.668,1.224,1.433l1.248,1.002c0.99,0.801,2.004,1.678,2.528,3.075c0.523,1.332,0.362,2.423-0.129,3.655
		c-0.66,1.634-1.707,3.051-3.51,3.82c-2.141,0.91-4.113,0.459-6.013-0.31c-1.127-0.455-2.149-0.994-3.268-2.008
		c-0.258-0.225-1.207-1.107-2.133-2.512L327.38,28.412z"/>
	<path d="M356.352,41.79c0.419,1.413,1.344,3.047,2.842,3.916c0.877,0.503,1.562,0.531,2.012,0.39
		c0.394-0.105,0.789-0.378,1.03-0.805c0.193-0.326,0.282-0.773,0.105-1.276c-0.209-0.62-0.757-1.171-1.642-2.117l-0.926-1.002
		c-0.572-0.632-1.385-1.598-1.626-2.741c-0.314-1.417,0.266-2.652,0.757-3.502c1.191-2.053,2.713-2.842,3.856-3.147
		c1.344-0.362,3.164-0.278,5.192,0.894c1.65,0.958,3.276,2.596,4.379,4.331l-3.679,2.383c-0.708-1.779-1.634-2.443-2.206-2.777
		c-0.427-0.246-1.063-0.475-1.715-0.322c-0.394,0.105-0.733,0.282-0.95,0.656c-0.169,0.298-0.25,0.555-0.209,0.881
		c0.04,0.221,0.169,0.696,1.022,1.59l1.095,1.167c0.861,0.93,1.747,1.944,2.069,3.401c0.33,1.393,0.024,2.447-0.644,3.602
		c-0.877,1.525-2.109,2.785-4.001,3.292c-2.254,0.6-4.138-0.121-5.917-1.147c-1.055-0.608-1.996-1.288-2.962-2.447
		c-0.217-0.258-1.038-1.268-1.763-2.785L356.352,41.79z"/>
	<path d="M380.549,45.86l-8.307,12.493l-4.154-2.765l8.307-12.489l-3.413-2.27l2.342-3.53l10.98,7.297l-2.342,3.534L380.549,45.86z"
		/>
	<path d="M392.149,70.327c-2.705,0.258-5.482-0.688-7.728-2.455c-2.238-1.767-3.808-4.254-4.186-6.939
		c-0.394-2.809,0.499-5.522,2.069-7.514c1.594-2.012,4.041-3.534,6.842-3.783c2.705-0.258,5.482,0.688,7.728,2.455
		c2.238,1.771,3.808,4.254,4.186,6.939c0.411,2.785-0.499,5.522-2.093,7.535C397.397,68.556,394.966,70.057,392.149,70.327z
		 M389.871,54.682c-1.441,0.149-2.705,0.958-3.542,2.02c-1.055,1.336-1.151,2.765-1.014,3.755c0.169,1.272,0.797,2.572,2.109,3.61
		c1.336,1.055,2.705,1.364,3.96,1.216c1.256-0.149,2.6-0.781,3.51-1.932c0.926-1.179,1.232-2.632,1.063-3.864
		c-0.209-1.453-1.046-2.773-2.085-3.594C392.785,55.036,391.328,54.513,389.871,54.682z"/>
	<path d="M413.891,67.344c1.046,0.994,2.238,2.431,2.254,4.48c0.016,1.574-0.733,3.168-1.787,4.282
		c-1.135,1.195-2.544,1.847-3.88,1.868c-1.038,0.008-2.069-0.374-2.842-0.865l-1.038,9.889l-4.516-4.274l1.602-8.674l-5.087,5.377
		l-3.63-3.437l13.25-14.011L413.891,67.344z M405.914,71.695l0.692,0.656c0.547,0.519,1.457,1.107,2.302,1.103
		c0.531-0.016,1.151-0.298,1.57-0.741c0.402-0.419,0.668-1.038,0.628-1.63c-0.016-0.656-0.427-1.441-1.224-2.198l-0.692-0.656
		L405.914,71.695z"/>
	<path d="M426.095,86.04l-4.049-4.379l-2.359,2.177l3.832,4.146l-3.131,2.886l-3.824-4.146l-2.447,2.258l4.049,4.379l-3.131,2.882
		l-7.43-8.054L421.78,75.1l7.438,8.058L426.095,86.04z"/>
	<path d="M442.629,107.295l-12.236,8.702l-2.89-4.069l12.228-8.702l-2.375-3.337l3.453-2.459l7.647,10.746l-3.453,2.459
		L442.629,107.295z"/>
	<path d="M452.079,113.494l-9.048,9.177l12.791-2.777l2.02,3.437l-8.823,9.551l12.566-3.151l2.64,4.508l-19.714,4.427l-2.584-4.407
		l7.849-8.645l-11.479,2.443l-2.568-4.383l13.709-14.687L452.079,113.494z"/>
	<path d="M467.334,141.732l-17.363,8.307l-2.157-4.504l17.371-8.307L467.334,141.732z"/>
	<path d="M451.597,153.163l17.871-7.048l1.827,4.637l-7.559,12.855l10.924-4.311l1.835,4.633l-17.87,7.048l-1.827-4.633l7.559-12.86
		l-10.932,4.311L451.597,153.163z"/>
	<path d="M465.539,173.988c-0.66,1.312-1.119,3.131-0.628,4.79c0.282,0.97,0.765,1.461,1.183,1.666
		c0.362,0.197,0.829,0.266,1.304,0.129c0.354-0.105,0.733-0.366,0.95-0.853c0.274-0.592,0.258-1.368,0.266-2.664l0.016-1.36
		c0.024-0.849,0.105-2.105,0.708-3.099c0.749-1.244,2.021-1.739,2.954-2.016c2.27-0.668,3.92-0.193,4.959,0.374
		c1.216,0.66,2.479,1.972,3.139,4.214c0.539,1.827,0.588,4.13,0.193,6.142l-4.307-0.805c0.716-1.775,0.507-2.886,0.314-3.522
		c-0.137-0.471-0.435-1.075-1.014-1.413c-0.362-0.197-0.724-0.302-1.135-0.177c-0.338,0.097-0.564,0.225-0.757,0.495
		c-0.129,0.185-0.362,0.616-0.354,1.847l-0.016,1.598c-0.016,1.268-0.072,2.608-0.837,3.888c-0.716,1.236-1.666,1.787-2.938,2.165
		c-1.69,0.499-3.445,0.563-5.16-0.37c-2.045-1.111-2.914-2.93-3.494-4.898c-0.346-1.159-0.563-2.298-0.467-3.804
		c0.024-0.338,0.121-1.63,0.644-3.228L465.539,173.988z"/>
	<path d="M473.138,204.847c-0.845,1.207-1.546,2.946-1.288,4.661c0.153,0.998,0.555,1.55,0.942,1.815
		c0.33,0.241,0.789,0.378,1.272,0.306c0.37-0.056,0.781-0.266,1.063-0.716c0.354-0.547,0.443-1.32,0.628-2.604l0.209-1.344
		c0.137-0.837,0.394-2.073,1.135-2.97c0.91-1.131,2.23-1.445,3.204-1.59c2.342-0.35,3.904,0.346,4.862,1.051
		c1.111,0.825,2.181,2.302,2.528,4.613c0.282,1.888,0.008,4.174-0.66,6.114l-4.154-1.393c0.95-1.658,0.902-2.789,0.797-3.445
		c-0.072-0.487-0.282-1.127-0.813-1.546c-0.33-0.242-0.668-0.394-1.103-0.33c-0.338,0.052-0.588,0.149-0.813,0.386
		c-0.153,0.169-0.443,0.563-0.612,1.783l-0.225,1.582c-0.193,1.256-0.435,2.576-1.368,3.739c-0.885,1.123-1.9,1.538-3.22,1.735
		c-1.739,0.262-3.486,0.085-5.063-1.079c-1.868-1.385-2.479-3.308-2.785-5.337c-0.177-1.199-0.233-2.359,0.072-3.832
		c0.064-0.33,0.346-1.598,1.079-3.111L473.138,204.847z"/>
	<path d="M485.108,226.283l-14.973,1.308l-0.435-4.983l14.973-1.308l-0.354-4.089l4.234-0.37l1.151,13.165l-4.234,0.37
		L485.108,226.283z"/>
	<path d="M473.315,250.883c-1.9-1.924-2.93-4.673-2.978-7.523c-0.048-2.854,0.877-5.635,2.721-7.627
		c1.916-2.077,4.58-3.103,7.116-3.147c2.56-0.044,5.289,0.885,7.253,2.898c1.908,1.924,2.938,4.673,2.986,7.523
		c0.048,2.854-0.885,5.635-2.721,7.627c-1.892,2.077-4.588,3.103-7.148,3.151C478.008,253.83,475.311,252.896,473.315,250.883z
		 M483.981,239.231c-1.03-1.018-2.447-1.485-3.799-1.461c-1.707,0.028-2.874,0.857-3.55,1.59c-0.877,0.938-1.489,2.246-1.457,3.916
		c0.032,1.699,0.66,2.954,1.562,3.832c0.91,0.877,2.246,1.517,3.719,1.493c1.497-0.028,2.809-0.712,3.655-1.622
		c0.99-1.083,1.489-2.56,1.465-3.884C485.55,241.711,485.035,240.25,483.981,239.231z"/>
	<path d="M489.181,265.538c-0.113,1.441-0.491,3.268-2.069,4.564c-1.207,1.006-2.922,1.421-4.452,1.3
		c-1.642-0.129-3.035-0.817-3.88-1.839c-0.66-0.805-1.014-1.847-1.119-2.757l-8.34,5.405l0.491-6.194l7.752-4.202l-7.374-0.58
		l0.386-4.983l19.215,1.509L489.181,265.538z M480.785,262.069l-0.072,0.95c-0.056,0.749,0.056,1.831,0.588,2.479
		c0.346,0.407,0.958,0.716,1.562,0.761c0.58,0.048,1.232-0.133,1.666-0.535c0.499-0.423,0.853-1.236,0.942-2.33l0.072-0.95
		L480.785,262.069z"/>
	<path d="M482.218,286.721l0.877-5.884l-3.164-0.475l-0.837,5.57l-4.194-0.632l0.829-5.566l-3.284-0.491l-0.877,5.88l-4.202-0.628
		l1.626-10.819l19.046,2.85l-1.626,10.823L482.218,286.721z"/>
	<path d="M475.963,313.096l-14.457-4.121l1.368-4.81l14.457,4.121l1.127-3.948l4.081,1.167l-3.622,12.703l-4.081-1.167
		L475.963,313.096z"/>
	<path d="M476.961,324.41l-12.815-1.376l10.127,8.295l-1.441,3.715l-12.968-0.974l10.288,7.893l-1.892,4.87l-15.729-12.694
		l1.851-4.765l11.648,0.773l-9.048-7.474l1.835-4.737l20.028,1.606L476.961,324.41z"/>
	<path d="M464.42,353.816l-17.283-8.392l2.181-4.48l17.283,8.388L464.42,353.816z"/>
	<path d="M445.656,348.741l16.695,9.563l-2.479,4.331l-14.787,2.137l10.215,5.848l-2.479,4.331l-16.695-9.563l2.479-4.331
		l14.787-2.133l-10.215-5.852L445.656,348.741z"/>
	<path d="M438.161,372.503c-1.433,0.298-3.139,1.079-4.13,2.495c-0.572,0.829-0.66,1.505-0.555,1.964
		c0.072,0.398,0.306,0.813,0.708,1.095c0.306,0.213,0.749,0.342,1.264,0.209c0.628-0.157,1.224-0.656,2.238-1.457l1.079-0.833
		c0.668-0.515,1.699-1.236,2.858-1.381c1.433-0.197,2.608,0.483,3.413,1.046c1.94,1.348,2.592,2.93,2.801,4.093
		c0.25,1.364,0.008,3.168-1.328,5.083c-1.087,1.558-2.85,3.035-4.669,3.981l-2.053-3.856c1.827-0.555,2.56-1.413,2.938-1.956
		c0.282-0.402,0.563-1.01,0.467-1.678c-0.072-0.398-0.217-0.745-0.572-0.994c-0.282-0.197-0.531-0.298-0.853-0.282
		c-0.225,0.02-0.708,0.105-1.666,0.877l-1.256,0.99c-0.998,0.781-2.077,1.574-3.55,1.775c-1.417,0.209-2.439-0.185-3.526-0.946
		c-1.441-1.002-2.592-2.33-2.93-4.258c-0.411-2.286,0.467-4.097,1.634-5.776c0.692-0.994,1.449-1.876,2.681-2.737
		c0.274-0.193,1.344-0.922,2.914-1.513L438.161,372.503z"/>
	<path d="M418.85,397.719c-1.465,0.105-3.26,0.652-4.427,1.924c-0.684,0.745-0.861,1.405-0.821,1.876
		c0.024,0.407,0.201,0.849,0.563,1.179c0.274,0.254,0.692,0.439,1.224,0.374c0.652-0.068,1.304-0.483,2.415-1.143l1.175-0.684
		c0.741-0.419,1.859-0.998,3.027-0.99c1.449,0,2.52,0.833,3.244,1.493c1.747,1.598,2.181,3.256,2.238,4.435
		c0.056,1.389-0.419,3.143-1.996,4.866c-1.288,1.401-3.236,2.628-5.168,3.325l-1.521-4.097c1.884-0.306,2.729-1.059,3.18-1.55
		c0.33-0.358,0.692-0.926,0.684-1.598c-0.016-0.411-0.113-0.773-0.435-1.067c-0.258-0.233-0.483-0.366-0.813-0.39
		c-0.225-0.012-0.716,0.008-1.771,0.648l-1.368,0.813c-1.095,0.64-2.27,1.284-3.759,1.284c-1.433,0.024-2.391-0.507-3.373-1.405
		c-1.296-1.187-2.254-2.656-2.342-4.613c-0.097-2.326,1.014-4.005,2.399-5.514c0.813-0.894,1.682-1.666,3.019-2.355
		c0.298-0.157,1.457-0.737,3.099-1.115L418.85,397.719z"/>
	<path d="M409.464,420.52l-10.336-10.855l3.614-3.437l10.328,10.855l2.97-2.821l2.922,3.071l-9.547,9.08l-2.922-3.067
		L409.464,420.52z"/>
	<path d="M383.109,426.513c0.338-2.697,1.868-5.208,4.081-7.015c2.222-1.803,4.991-2.793,7.696-2.58
		c2.834,0.229,5.289,1.69,6.891,3.663c1.626,1.992,2.576,4.717,2.214,7.51c-0.338,2.697-1.868,5.208-4.089,7.011
		c-2.214,1.807-4.983,2.797-7.688,2.58c-2.817-0.205-5.289-1.686-6.915-3.679C383.697,432.032,382.763,429.331,383.109,426.513z
		 M398.895,427.693c0.169-1.437-0.346-2.846-1.199-3.896c-1.079-1.324-2.455-1.731-3.453-1.811c-1.28-0.113-2.689,0.217-3.985,1.276
		c-1.32,1.075-1.924,2.346-2.053,3.606s0.193,2.709,1.127,3.852c0.95,1.163,2.302,1.775,3.542,1.88
		c1.465,0.109,2.938-0.419,3.969-1.256C397.913,430.466,398.75,429.158,398.895,427.693z"/>
	<path d="M381.394,448.204c-1.199,0.805-2.858,1.646-4.846,1.216c-1.538-0.322-2.922-1.401-3.775-2.669
		c-0.918-1.36-1.248-2.878-0.974-4.174c0.217-1.014,0.813-1.936,1.457-2.58l-9.386-3.16l5.136-3.461l8.09,3.445l-4.121-6.118
		l4.13-2.785l10.738,15.939L381.394,448.204z M378.899,439.498l-0.789,0.531c-0.628,0.419-1.393,1.183-1.578,1.996
		c-0.097,0.519,0.04,1.191,0.378,1.694c0.322,0.479,0.869,0.873,1.449,0.966c0.644,0.125,1.497-0.101,2.407-0.712l0.789-0.531
		L378.899,439.498z"/>
	<path d="M360.473,456.06l5.136-2.978l-1.61-2.765l-4.854,2.821l-2.125-3.663l4.854-2.821l-1.666-2.862l-5.128,2.978l-2.125-3.659
		l9.434-5.482l9.652,16.611l-9.442,5.482L360.473,456.06z"/>
	<path d="M336.042,467.62l-5.828-13.797l4.596-1.94l5.82,13.801l3.767-1.59l1.642,3.904l-12.123,5.116l-1.65-3.904L336.042,467.62z"
		/>
	<path d="M327.847,475.508l-6.939-10.863l-0.145,13.093l-3.799,1.199l-7.349-10.734l0.274,12.964l-4.991,1.57l0.08-20.221
		l4.878-1.538l6.681,9.583l0.177-11.741l4.846-1.529l11.27,16.647L327.847,475.508z"/>
	<path d="M296.96,484.178l-4.282-18.792l4.878-1.107l4.282,18.792L296.96,484.178z"/>
	<path d="M289.394,466.247l2.93,19.042l-4.935,0.761l-10.907-10.243l1.795,11.648l-4.935,0.761l-2.938-19.042l4.943-0.761
		l10.899,10.243l-1.795-11.648L289.394,466.247z"/>
	<path d="M266.097,475.263c-1.135-0.934-2.817-1.771-4.54-1.65c-1.014,0.072-1.594,0.431-1.884,0.797
		c-0.274,0.31-0.443,0.757-0.411,1.244c0.032,0.374,0.201,0.797,0.628,1.115c0.523,0.398,1.288,0.547,2.552,0.833l1.32,0.314
		c0.829,0.205,2.037,0.551,2.874,1.364c1.055,0.994,1.264,2.342,1.336,3.321c0.161,2.363-0.66,3.868-1.433,4.761
		c-0.91,1.046-2.471,1.996-4.798,2.157c-1.908,0.133-4.162-0.318-6.045-1.139l1.715-4.029c1.586,1.075,2.713,1.115,3.373,1.067
		c0.491-0.032,1.143-0.197,1.602-0.692c0.274-0.306,0.451-0.636,0.419-1.071c-0.024-0.346-0.097-0.6-0.322-0.845
		c-0.153-0.161-0.523-0.483-1.731-0.749l-1.554-0.354c-1.24-0.29-2.536-0.632-3.618-1.654c-1.055-0.97-1.389-2.016-1.481-3.341
		c-0.121-1.759,0.193-3.49,1.477-4.967c1.529-1.759,3.494-2.214,5.538-2.355c1.207-0.085,2.367-0.052,3.816,0.37
		c0.33,0.093,1.57,0.467,3.019,1.32L266.097,475.263z"/>
	<path d="M234.124,475.927c-0.994-1.083-2.54-2.145-4.27-2.266c-1.006-0.068-1.634,0.205-1.976,0.527
		c-0.306,0.27-0.539,0.688-0.572,1.175c-0.028,0.374,0.085,0.817,0.467,1.191c0.459,0.467,1.191,0.72,2.407,1.183l1.268,0.491
		c0.785,0.318,1.936,0.829,2.656,1.751c0.902,1.131,0.926,2.495,0.857,3.473c-0.165,2.363-1.187,3.739-2.085,4.516
		c-1.046,0.91-2.717,1.634-5.051,1.469c-1.9-0.133-4.077-0.894-5.824-1.968l2.258-3.751c1.417,1.284,2.532,1.481,3.196,1.525
		c0.487,0.036,1.159-0.036,1.682-0.463c0.306-0.266,0.531-0.568,0.559-1.002c0.024-0.346-0.016-0.608-0.197-0.881
		c-0.133-0.181-0.455-0.551-1.61-0.982l-1.493-0.568c-1.187-0.459-2.423-0.978-3.353-2.141c-0.91-1.107-1.095-2.19-1.002-3.514
		c0.125-1.759,0.676-3.429,2.153-4.713c1.759-1.529,3.767-1.707,5.812-1.562c1.211,0.085,2.355,0.278,3.727,0.898
		c0.31,0.137,1.489,0.68,2.805,1.727L234.124,475.927z"/>
	<path d="M210.763,482.914l1.964-14.848l4.939,0.652l-1.96,14.848l4.053,0.535l-0.555,4.198l-13.049-1.723l0.555-4.198
		L210.763,482.914z"/>
	<path d="M189.556,466.106c2.306-1.425,5.22-1.803,8.006-1.203c2.793,0.6,5.289,2.137,6.814,4.375
		c1.59,2.346,1.984,5.172,1.453,7.651c-0.535,2.508-2.061,4.951-4.468,6.412c-2.306,1.417-5.216,1.795-8.005,1.199
		c-2.789-0.596-5.289-2.133-6.814-4.379c-1.594-2.314-1.984-5.168-1.449-7.675C185.624,470.006,187.145,467.591,189.556,466.106z
		 M198.495,479.131c1.224-0.773,1.996-2.049,2.282-3.373c0.358-1.662-0.185-2.986-0.745-3.816c-0.716-1.063-1.851-1.956-3.486-2.306
		c-1.658-0.358-3.027-0.028-4.089,0.656c-1.059,0.684-1.984,1.843-2.294,3.28c-0.314,1.465,0.056,2.902,0.749,3.932
		c0.833,1.207,2.161,2.025,3.457,2.302C195.722,480.097,197.264,479.928,198.495,479.131z"/>
	<path d="M171.492,478.33c-1.377-0.427-3.071-1.195-3.985-3.019c-0.716-1.401-0.741-3.16-0.29-4.621
		c0.487-1.57,1.469-2.773,2.648-3.373c0.93-0.467,2.025-0.58,2.93-0.483l-3.425-9.306l5.925,1.839l2.383,8.472l2.19-7.052
		l4.765,1.477l-5.703,18.374L171.492,478.33z M176.721,470.924l-0.91-0.282c-0.716-0.221-1.795-0.346-2.544,0.024
		c-0.471,0.25-0.906,0.777-1.087,1.356c-0.169,0.551-0.137,1.224,0.157,1.739c0.302,0.576,1.014,1.099,2.065,1.425l0.906,0.282
		L176.721,470.924z"/>
	<path d="M152.173,466.851l5.542,2.149l1.159-2.986l-5.248-2.037l1.533-3.956l5.248,2.037l1.203-3.095l-5.546-2.153l1.533-3.956
		l10.203,3.956l-6.963,17.955l-10.203-3.956L152.173,466.851z"/>
	<path d="M128.008,454.929l7.192-13.145l4.375,2.395l-7.192,13.145l3.59,1.964l-2.037,3.719l-11.551-6.323l2.033-3.719
		L128.008,454.929z"/>
	<path d="M116.722,453.408l4.17-12.167l-10.312,8.03l-3.296-2.222l3.808-12.409l-9.95,8.271l-4.327-2.914l15.83-12.509l4.23,2.85
		l-3.325,11.173l9.273-7.164l4.206,2.834l-5.981,19.142L116.722,453.408z"/>
	<path d="M90.665,434.672l11.998-15.017l3.892,3.111l-11.994,15.017L90.665,434.672z"/>
	<path d="M99.833,417.566l-13,14.18l-3.679-3.373l1.171-14.892l-7.953,8.67l-3.679-3.373l13.004-14.176l3.679,3.373l-1.175,14.892
		l7.957-8.674L99.833,417.566z"/>
	<path d="M78.22,404.996c0.02-1.469-0.37-3.304-1.538-4.58c-0.684-0.745-1.328-0.974-1.795-0.974
		c-0.411-0.02-0.865,0.125-1.228,0.455c-0.274,0.254-0.495,0.656-0.479,1.187c0.012,0.652,0.37,1.34,0.934,2.508l0.58,1.232
		c0.354,0.769,0.833,1.932,0.724,3.091c-0.125,1.445-1.046,2.447-1.767,3.111c-1.743,1.598-3.429,1.892-4.613,1.839
		c-1.385-0.06-3.095-0.684-4.673-2.407c-1.288-1.401-2.342-3.449-2.87-5.43l4.214-1.167c0.145,1.908,0.821,2.813,1.268,3.3
		c0.33,0.362,0.865,0.773,1.538,0.825c0.407,0.016,0.777-0.048,1.095-0.342c0.258-0.233,0.407-0.451,0.463-0.777
		c0.028-0.221,0.052-0.712-0.491-1.819l-0.696-1.437c-0.539-1.147-1.079-2.375-0.954-3.86c0.101-1.425,0.712-2.334,1.69-3.232
		c1.296-1.191,2.842-2.021,4.798-1.936c2.322,0.101,3.904,1.352,5.289,2.862c0.817,0.894,1.513,1.819,2.085,3.212
		c0.129,0.314,0.608,1.517,0.841,3.18L78.22,404.996z"/>
	<path d="M57.838,380.642c0.217-1.453,0.076-3.321-0.914-4.737c-0.576-0.829-1.179-1.143-1.646-1.207
		c-0.402-0.072-0.869,0.012-1.272,0.29c-0.31,0.217-0.58,0.58-0.632,1.111c-0.076,0.648,0.185,1.377,0.588,2.608l0.411,1.296
		c0.25,0.809,0.568,2.029,0.306,3.16c-0.318,1.413-1.36,2.282-2.165,2.842c-1.94,1.352-3.651,1.421-4.814,1.211
		c-1.364-0.246-2.97-1.091-4.307-3.007c-1.087-1.558-1.859-3.727-2.117-5.76l4.331-0.592c-0.113,1.904,0.435,2.894,0.813,3.437
		c0.282,0.402,0.753,0.877,1.413,1.018c0.402,0.068,0.777,0.056,1.131-0.193c0.282-0.197,0.463-0.394,0.559-0.704
		c0.06-0.217,0.149-0.7-0.246-1.868l-0.495-1.517c-0.382-1.207-0.753-2.495-0.431-3.948c0.29-1.397,1.014-2.218,2.105-2.978
		c1.441-1.006,3.083-1.622,5.011-1.276c2.286,0.406,3.683,1.855,4.854,3.538c0.692,0.99,1.256,2.004,1.638,3.457
		c0.085,0.326,0.398,1.586,0.411,3.264L57.838,380.642z"/>
	<path d="M37.725,366.615l12.819-7.716l2.568,4.262l-12.819,7.72l2.105,3.502l-3.622,2.181l-6.782-11.266l3.622-2.181
		L37.725,366.615z"/>
	<path d="M37.673,339.648c2.548,0.922,4.657,2.958,5.929,5.51c1.268,2.556,1.622,5.466,0.821,8.054
		c-0.845,2.701-2.805,4.773-5.075,5.9c-2.294,1.143-5.156,1.473-7.792,0.499c-2.548-0.918-4.657-2.958-5.929-5.51
		c-1.268-2.552-1.622-5.462-0.821-8.05c0.817-2.693,2.805-4.774,5.1-5.917C32.175,339.008,35.008,338.69,37.673,339.648z
		 M33.06,354.75c1.364,0.479,2.846,0.286,4.057-0.318c1.521-0.757,2.218-2.004,2.516-2.954c0.39-1.224,0.378-2.664-0.366-4.162
		c-0.757-1.521-1.864-2.387-3.059-2.789c-1.195-0.402-2.677-0.402-3.993,0.25c-1.34,0.668-2.234,1.851-2.608,3.035
		c-0.427,1.405-0.237,2.95,0.354,4.138C30.577,353.184,31.668,354.283,33.06,354.75z"/>
	<path d="M16.792,333.092c-0.523-1.344-0.978-3.151-0.117-5.003c0.656-1.429,2.016-2.548,3.445-3.099
		c1.533-0.596,3.087-0.58,4.295-0.024c0.942,0.439,1.711,1.224,2.198,1.996l5.164-8.476l2.246,5.788l-5.156,7.14l6.891-2.673
		l1.803,4.657l-17.951,6.963L16.792,333.092z M25.852,332.581l-0.346-0.885c-0.27-0.7-0.845-1.622-1.602-1.98
		c-0.487-0.213-1.171-0.225-1.739-0.008c-0.539,0.209-1.046,0.656-1.268,1.203c-0.262,0.6-0.229,1.485,0.169,2.508l0.342,0.885
		L25.852,332.581z"/>
	<path d="M13.789,311.019l1.763,5.675l3.059-0.95l-1.67-5.369l4.049-1.26l1.67,5.373l3.168-0.986l-1.763-5.671l4.049-1.26
		l3.24,10.441l-18.374,5.703l-3.24-10.437L13.789,311.019z"/>
	<path d="M7.853,284.56l14.779-2.616l0.873,4.918l-14.783,2.616l0.716,4.037l-4.178,0.737l-2.302-12.988l4.178-0.741L7.853,284.56z"
		/>
	<path d="M1.988,274.92l12.139-4.371l-12.751-3.031l-0.33-3.977l12.099-4.802l-12.715-2.6L0,250.928l19.718,4.54l0.427,5.096
		l-10.831,4.411l11.423,2.761l0.423,5.071l-18.736,7.325L1.988,274.92z"/>
	<path d="M0.346,242.652l19.215-0.334l0.085,4.983l-19.211,0.334L0.346,242.652z"/>
	<path d="M19.48,239.32L0.27,238.06l0.326-4.983l12.352-8.416l-11.753-0.769l0.326-4.987l19.215,1.26l-0.33,4.983l-12.352,8.42
		l11.753,0.769L19.48,239.32z"/>
	<path d="M15.725,214.623c1.159-0.906,2.342-2.367,2.596-4.077c0.149-1.002-0.072-1.646-0.37-2.012
		c-0.241-0.33-0.64-0.592-1.127-0.664c-0.37-0.056-0.817,0.024-1.22,0.37c-0.503,0.423-0.813,1.135-1.368,2.306l-0.592,1.224
		c-0.378,0.761-0.982,1.868-1.952,2.512c-1.203,0.813-2.564,0.724-3.534,0.58c-2.338-0.35-3.63-1.477-4.335-2.431
		c-0.825-1.115-1.413-2.838-1.067-5.152c0.282-1.884,1.211-3.993,2.423-5.651l3.558,2.548c-1.393,1.312-1.674,2.407-1.771,3.063
		c-0.072,0.487-0.056,1.159,0.326,1.715c0.241,0.326,0.527,0.576,0.954,0.64c0.342,0.048,0.608,0.032,0.898-0.129
		c0.193-0.117,0.584-0.411,1.103-1.529l0.684-1.445c0.551-1.143,1.167-2.334,2.403-3.172c1.171-0.817,2.266-0.918,3.582-0.72
		c1.739,0.262,3.361,0.942,4.524,2.52c1.385,1.872,1.405,3.888,1.099,5.913c-0.177,1.199-0.463,2.326-1.187,3.647
		c-0.161,0.298-0.797,1.429-1.944,2.66L15.725,214.623z"/>
	<path d="M21.992,183.471c1.268-0.737,2.64-2.016,3.131-3.679c0.286-0.966,0.153-1.638-0.089-2.041
		c-0.197-0.358-0.555-0.676-1.022-0.813c-0.362-0.109-0.817-0.093-1.264,0.197c-0.555,0.346-0.962,1.01-1.67,2.093l-0.757,1.131
		c-0.479,0.7-1.228,1.715-2.278,2.218c-1.304,0.636-2.636,0.362-3.578,0.085c-2.266-0.672-3.389-1.964-3.956-3.003
		c-0.66-1.22-1.006-3.007-0.342-5.248c0.539-1.827,1.747-3.783,3.176-5.261l3.172,3.015c-1.558,1.103-1.988,2.149-2.177,2.785
		c-0.137,0.471-0.213,1.143,0.089,1.743c0.193,0.358,0.443,0.64,0.857,0.765c0.33,0.097,0.596,0.117,0.906-0.004
		c0.205-0.089,0.636-0.322,1.304-1.36l0.873-1.336c0.704-1.055,1.477-2.149,2.817-2.805c1.272-0.648,2.371-0.596,3.643-0.217
		c1.69,0.499,3.2,1.393,4.134,3.115c1.111,2.045,0.853,4.041,0.274,6.005c-0.346,1.163-0.781,2.238-1.682,3.445
		c-0.201,0.274-0.986,1.304-2.29,2.363L21.992,183.471z"/>
	<path d="M20.406,158.862l14.063,5.232l-1.743,4.677l-14.059-5.232l-1.429,3.84l-3.977-1.481l4.6-12.356l3.973,1.481L20.406,158.862
		z"/>
	<path d="M41.549,141.893c0.869,2.572,0.588,5.498-0.62,8.086c-1.207,2.592-3.268,4.689-5.796,5.675
		c-2.648,1.026-5.494,0.781-7.796-0.29c-2.33-1.087-4.375-3.123-5.261-5.8c-0.869-2.572-0.588-5.498,0.62-8.086
		c1.207-2.592,3.268-4.689,5.796-5.675c2.62-1.038,5.494-0.781,7.824,0.306C38.619,137.18,40.635,139.205,41.549,141.893z
		 M26.83,147.705c0.475,1.368,1.55,2.411,2.781,2.986c1.542,0.72,2.958,0.487,3.892,0.125c1.199-0.459,2.322-1.368,3.031-2.886
		c0.72-1.542,0.708-2.95,0.274-4.138c-0.431-1.191-1.352-2.355-2.689-2.974c-1.36-0.636-2.846-0.596-4.009-0.149
		c-1.364,0.539-2.459,1.654-3.019,2.858C26.504,144.783,26.327,146.325,26.83,147.705z"/>
	<path d="M33.596,121.656c0.724-1.244,1.847-2.721,3.828-3.204c1.521-0.382,3.24-0.016,4.56,0.749
		c1.417,0.825,2.375,2.045,2.693,3.333c0.246,1.006,0.117,2.097-0.185,2.954l9.825-1.256l-3.111,5.353l-8.778,0.431l6.375,3.703
		l-2.499,4.311l-16.611-9.648L33.596,121.656z M39.637,128.398l0.479-0.821c0.374-0.648,0.737-1.67,0.543-2.483
		c-0.137-0.511-0.555-1.055-1.079-1.356c-0.495-0.29-1.159-0.411-1.727-0.237c-0.628,0.165-1.296,0.745-1.847,1.69l-0.479,0.821
		L39.637,128.398z"/>
	<path d="M48.979,105.44l-3.317,4.922l2.652,1.787l3.139-4.661l3.51,2.367l-3.139,4.661l2.749,1.851l3.317-4.922l3.514,2.367
		l-6.102,9.056l-15.939-10.738l6.102-9.056L48.979,105.44z"/>
</g>
</svg>
