<?xml version="1.0" encoding="utf-8"?>
<!-- Generator: Adobe Illustrator 23.0.1, SVG Export Plug-In . SVG Version: 6.00 Build 0)  -->
<svg version="1.1" id="Layer_1" xmlns="http://www.w3.org/2000/svg" xmlns:xlink="http://www.w3.org/1999/xlink" x="0px" y="0px"
	 viewBox="0 0 512 293.074" enable-background="new 0 0 512 293.074" xml:space="preserve">
<g>
	<path d="M496.701,30H15.299C6.85,30,0,23.284,0,15S6.85,0,15.299,0h481.402C505.15,0,512,6.716,512,15S505.15,30,496.701,30z"/>
</g>
<g>
	<path d="M496.701,161.537H15.299c-8.449,0-15.299-6.716-15.299-15s6.85-15,15.299-15h481.402c8.449,0,15.299,6.716,15.299,15
		S505.15,161.537,496.701,161.537z"/>
</g>
<g>
	<path d="M496.701,293.074H15.299c-8.449,0-15.299-6.716-15.299-15s6.85-15,15.299-15h481.402c8.449,0,15.299,6.716,15.299,15
		S505.15,293.074,496.701,293.074z"/>
</g>
</svg>
