<?xml version="1.0" encoding="utf-8"?>
<!-- Generator: Adobe Illustrator 23.0.1, SVG Export Plug-In . SVG Version: 6.00 Build 0)  -->
<svg version="1.1" id="Layer_1" xmlns="http://www.w3.org/2000/svg" xmlns:xlink="http://www.w3.org/1999/xlink" x="0px" y="0px"
	 viewBox="0 0 370.703 370.703" enable-background="new 0 0 370.703 370.703" xml:space="preserve">
<path d="M206.565,185.351L366.159,25.757c5.974-5.974,6.069-15.567,0.211-21.425s-15.45-5.763-21.425,0.211L185.351,164.138
	L25.757,4.543C19.782-1.431,10.19-1.526,4.332,4.332s-5.763,15.45,0.211,21.425l159.595,159.595L4.543,344.946
	c-5.974,5.974-6.069,15.567-0.211,21.425s15.45,5.763,21.425-0.211l159.595-159.595l159.595,159.595
	c5.974,5.974,15.567,6.069,21.425,0.211s5.763-15.45-0.211-21.425L206.565,185.351z"/>
</svg>
