<?xml version="1.0" encoding="utf-8"?>
<!-- Generator: Adobe Illustrator 23.0.1, SVG Export Plug-In . SVG Version: 6.00 Build 0)  -->
<svg version="1.1" id="Layer_1" xmlns="http://www.w3.org/2000/svg" xmlns:xlink="http://www.w3.org/1999/xlink" x="0px" y="0px"
	 viewBox="0 0 512 512" enable-background="new 0 0 512 512" xml:space="preserve">
<path d="M302,0C186.207,0,92,94.207,92,210c0,41.648,12.188,80.5,33.18,113.184L4.395,443.973C1.578,446.785,0,450.602,0,454.578
	s1.578,7.793,4.395,10.605l42.422,42.422c2.93,2.93,6.77,4.395,10.605,4.395c3.84,0,7.68-1.465,10.605-4.395l120.789-120.789
	C221.5,407.813,260.352,420,302,420c115.793,0,210-94.207,210-210S417.793,0,302,0z M57.422,475.785l-21.207-21.207l107.133-107.137
	c6.559,7.563,13.648,14.652,21.211,21.211L57.422,475.785z M302,381c-99.254,0-171-71.746-171-171S202.746,39,302,39
	s171,71.746,171,171S401.254,381,302,381z"/>
</svg>
